<?xml version="1.0" encoding="utf-8"?>
<!-- Generator: Adobe Illustrator 19.1.1, SVG Export Plug-In . SVG Version: 6.00 Build 0)  -->
<svg version="1.1" id="Layer_1" xmlns="http://www.w3.org/2000/svg" xmlns:xlink="http://www.w3.org/1999/xlink" x="0px" y="0px"
	 viewBox="0 0 25.7 25.7" style="enable-background:new 0 0 25.7 25.7;" xml:space="preserve">
<style type="text/css">
	.st0{fill:#FFFFFF;}
	.st1{fill:#3C5A9C;}
</style>
<g>
	<path class="st0" d="M25.7,20.9c0,2.7-2.2,4.8-4.8,4.8H4.8c-2.7,0-4.8-2.2-4.8-4.8V4.8C0,2.2,2.2,0,4.8,0h16.1
		c2.7,0,4.8,2.2,4.8,4.8V20.9z"/>
	<path class="st1" d="M25.7,4.8v16.1c0,2.7-2.2,4.8-4.8,4.8h-3.1v-10h3.3l0.5-3.9h-3.8V9.4c0-1.1,0.3-1.9,1.9-1.9l2,0V4
		c-0.4-0.1-1.6-0.2-3-0.2c-3,0-5,1.8-5,5.1v2.9h-3.3v3.9h3.3v10H4.8c-2.7,0-4.8-2.2-4.8-4.8V4.8C0,2.2,2.2,0,4.8,0h16.1
		C23.6,0,25.7,2.2,25.7,4.8z"/>
</g>
</svg>
