<?xml version="1.0" encoding="utf-8"?>
<!-- Generator: Adobe Illustrator 19.1.1, SVG Export Plug-In . SVG Version: 6.00 Build 0)  -->
<svg version="1.1" id="Layer_1" xmlns="http://www.w3.org/2000/svg" xmlns:xlink="http://www.w3.org/1999/xlink" x="0px" y="0px"
	 viewBox="0 0 25.7 25.7" style="enable-background:new 0 0 25.7 25.7;" xml:space="preserve">
<style type="text/css">
	.st0{fill:#115789;}
	.st1{fill:#FFFFFF;}
</style>
<g>
	<path class="st0" d="M25.7,22.4c0,1.8-1.5,3.3-3.3,3.3H3.3c-1.8,0-3.3-1.5-3.3-3.3V3.3C0,1.5,1.5,0,3.3,0h19.1
		c1.8,0,3.3,1.5,3.3,3.3V22.4z"/>
	<path class="st1" d="M22.8,10.9h-2.3c0.2,0.7,0.3,1.4,0.3,2.2c0,4.3-3.6,7.8-8,7.8c-4.4,0-8-3.5-8-7.8c0-0.8,0.1-1.5,0.3-2.2H2.9
		v10.8c0,0.6,0.5,1,1,1h17.9c0.6,0,1-0.5,1-1V10.9z"/>
	<path class="st1" d="M12.9,7.8c-2.8,0-5.2,2.2-5.2,5c0,2.8,2.3,5,5.2,5c2.9,0,5.2-2.2,5.2-5C18,10,15.7,7.8,12.9,7.8z"/>
	<path class="st1" d="M22.8,4c0-0.6-0.5-1.2-1.2-1.2h-2.9c-0.6,0-1.2,0.5-1.2,1.2v2.8c0,0.6,0.5,1.2,1.2,1.2h2.9
		c0.6,0,1.2-0.5,1.2-1.2V4z"/>
</g>
</svg>
