<?xml version="1.0" encoding="utf-8"?>
<!-- Generator: Adobe Illustrator 19.1.1, SVG Export Plug-In . SVG Version: 6.00 Build 0)  -->
<svg version="1.1" id="Layer_1" xmlns="http://www.w3.org/2000/svg" xmlns:xlink="http://www.w3.org/1999/xlink" x="0px" y="0px"
	 viewBox="0 0 25.7 25.7" style="enable-background:new 0 0 25.7 25.7;" xml:space="preserve">
<style type="text/css">
	.st0{fill:#4B91CE;}
	.st1{fill:#FFFFFF;}
</style>
<g>
	<path class="st0" d="M25.7,20.9c0,2.7-2.2,4.8-4.8,4.8H4.8c-2.7,0-4.8-2.2-4.8-4.8V4.8C0,2.2,2.2,0,4.8,0h16.1
		c2.7,0,4.8,2.2,4.8,4.8V20.9z"/>
	<path class="st1" d="M19.4,8.6c0.7-0.4,1.3-1.1,1.6-2c-0.7,0.4-1.4,0.7-2.2,0.9c-0.6-0.7-1.6-1.1-2.6-1.1c-1.9,0-3.5,1.6-3.5,3.5
		c0,0.3,0,0.6,0.1,0.8c-2.9-0.2-5.5-1.5-7.3-3.7C5.2,7.6,5,8.2,5,8.8c0,1.2,0.6,2.3,1.5,2.9c-0.6,0-1.1-0.2-1.7-0.4c0,0,0,0,0,0
		c0,1.7,1.3,3.1,2.9,3.4c-0.3,0.1-0.5,0.1-0.9,0.1c-0.2,0-0.4,0-0.7-0.1c0.5,1.4,1.7,2.4,3.3,2.4c-1.2,0.9-2.7,1.5-4.4,1.5
		c-0.3,0-0.6,0-0.8,0c1.6,1,3.4,1.6,5.4,1.6c6.5,0,10-5.4,10-10c0-0.2,0-0.3,0-0.5c0.7-0.5,1.3-1.1,1.8-1.8
		C20.8,8.4,20.1,8.5,19.4,8.6z"/>
</g>
</svg>
