<?xml version="1.0" encoding="utf-8"?>
<!-- Generator: Adobe Illustrator 19.1.1, SVG Export Plug-In . SVG Version: 6.00 Build 0)  -->
<svg version="1.1" id="Layer_1" xmlns="http://www.w3.org/2000/svg" xmlns:xlink="http://www.w3.org/1999/xlink" x="0px" y="0px"
	 viewBox="0 0 25.7 25.7" style="enable-background:new 0 0 25.7 25.7;" xml:space="preserve">
<style type="text/css">
	.st0{fill:#FFFFFF;}
	.st1{fill:#E42626;}
</style>
<g>
	<path class="st0" d="M25.7,20.9c0,2.7-2.2,4.8-4.8,4.8H4.8c-2.7,0-4.8-2.2-4.8-4.8V4.8C0,2.2,2.2,0,4.8,0h16.1
		c2.7,0,4.8,2.2,4.8,4.8V20.9z"/>
	<path class="st1" d="M25.7,20.9c0,2.7-2.2,4.8-4.8,4.8H4.8c-2.7,0-4.8-2.2-4.8-4.8V4.8C0,2.2,2.2,0,4.8,0h16.1
		c2.7,0,4.8,2.2,4.8,4.8V20.9z M21.7,13.1c-0.2-1-1-1.7-2-1.8C17.5,11,15.2,11,12.9,11c-2.3,0-4.6,0-6.9,0.3c-1,0.1-1.8,0.8-2,1.8
		c-0.3,1.4-0.3,2.9-0.3,4.4c0,1.4,0,2.9,0.3,4.4c0.2,1,1,1.7,2,1.8c2.3,0.3,4.6,0.3,6.9,0.3s4.6,0,6.9-0.3c1-0.1,1.8-0.8,2-1.8
		c0.3-1.4,0.3-2.9,0.3-4.4C22.1,16,22.1,14.5,21.7,13.1z M8.9,14.3H7.6v7.1H6.3v-7.1H5v-1.2h3.9V14.3z M10.9,1.6H9.7L8.8,4.9
		L7.9,1.6H6.6c0.3,0.8,0.5,1.5,0.8,2.3c0.4,1.2,0.7,2,0.8,2.6v3.4h1.2V6.5L10.9,1.6z M12.3,21.4h-1.1v-0.7c-0.4,0.5-0.9,0.8-1.3,0.8
		c-0.4,0-0.6-0.2-0.7-0.5c-0.1-0.2-0.1-0.5-0.1-0.9v-4.9h1.1v4.5c0,0.3,0,0.4,0,0.4c0,0.2,0.1,0.3,0.3,0.3c0.2,0,0.5-0.2,0.7-0.5
		v-4.7h1.1V21.4z M14.3,5.7c0-0.7-0.1-1.1-0.4-1.5c-0.3-0.4-0.8-0.6-1.3-0.6c-0.6,0-1,0.2-1.3,0.6c-0.2,0.3-0.4,0.8-0.4,1.5v2.2
		c0,0.7,0.1,1.1,0.4,1.5C11.6,9.8,12,10,12.6,10c0.6,0,1-0.2,1.3-0.6c0.2-0.3,0.4-0.8,0.4-1.5V5.7z M13.1,8.1C13.1,8.7,13,9,12.6,9
		c-0.4,0-0.5-0.3-0.5-0.9V5.5c0-0.6,0.2-0.9,0.5-0.9c0.4,0,0.5,0.3,0.5,0.9V8.1z M16.5,19.6c0,0.6,0,1-0.1,1.2
		c-0.1,0.5-0.4,0.7-0.9,0.7c-0.4,0-0.8-0.2-1.1-0.7v0.6h-1.1v-8.3h1.1v2.7c0.4-0.4,0.7-0.7,1.1-0.7c0.5,0,0.8,0.2,0.9,0.7
		c0.1,0.3,0.1,0.7,0.1,1.2V19.6z M15.4,17c0-0.6-0.2-0.8-0.5-0.8c-0.2,0-0.4,0.1-0.6,0.3v3.7c0.2,0.2,0.4,0.3,0.6,0.3
		c0.3,0,0.5-0.3,0.5-0.8V17z M18.4,9.9V3.7h-1.1v4.7C17,8.8,16.8,9,16.6,9c-0.2,0-0.3-0.1-0.3-0.3c0,0,0-0.2,0-0.4V3.7h-1.1v4.9
		c0,0.4,0,0.7,0.1,0.9C15.4,9.8,15.7,10,16,10c0.4,0,0.8-0.3,1.3-0.8v0.7H18.4z M20.7,19.5c0,0.4,0,0.6,0,0.7c0,0.3-0.1,0.5-0.3,0.7
		c-0.3,0.5-0.8,0.7-1.3,0.7c-0.6,0-1-0.2-1.4-0.6c-0.2-0.3-0.4-0.8-0.4-1.4v-2.2c0-0.7,0.1-1.1,0.3-1.4c0.3-0.4,0.8-0.6,1.3-0.6
		c0.6,0,1,0.2,1.3,0.6c0.2,0.3,0.4,0.8,0.4,1.4v1.3h-2.2v1.1c0,0.6,0.2,0.9,0.6,0.9c0.3,0,0.4-0.2,0.5-0.4c0-0.1,0-0.3,0-0.8h1.1
		V19.5z M19.6,17.6v-0.6c0-0.6-0.2-0.9-0.6-0.9c-0.4,0-0.6,0.3-0.6,0.9v0.6H19.6z"/>
</g>
</svg>
