<?xml version="1.0" encoding="utf-8"?>
<!-- Generator: Adobe Illustrator 24.0.1, SVG Export Plug-In . SVG Version: 6.00 Build 0)  -->
<svg version="1.1" xmlns="http://www.w3.org/2000/svg" xmlns:xlink="http://www.w3.org/1999/xlink" x="0px" y="0px"
	 viewBox="0 0 19.9 20" style="enable-background:new 0 0 19.9 20;" xml:space="preserve">
<style type="text/css">
	.st0{fill:none;}
	.st1{fill:#999999;}
</style>
<g id="Layer_2">
	<rect x="0" y="0" width="20" height="20"/>
</g>
<g id="Layer_1">
	<title>acrobat-icon</title>
	<rect x="-0.9" y="-0.9" class="st0" width="225.2" height="112.6"/>
	<g>
		<path class="st1" d="M3.6,15.6c-2.1,1.6-3.6,3.9-3,4.3l-0.5-0.2C-0.3,19.3,0.4,17.3,3.6,15.6z"/>
		<path class="st1" d="M19.9,13.8c1.1-2.4-8-2-14.7,1.1C10.4,12.9,20,12,19.9,13.8z"/>
		<path class="st1" d="M9.6,1.2C9.8-0.1,9.2,0,9,0H8.6C8.4,0,8.2,0.2,8.1,0.6c-0.6,2.4,0.5,8.3,3.7,11.1c2.8,2.4,7.8,3.5,8,2.4
			c-1,0.5-4.9-0.7-7.5-2.8c-3-2.5-4.4-8.7-3.7-10.7c0.1-0.2,0.2-0.3,0.3-0.5C9.3,0.3,9.5,0.8,9.6,1.2z"/>
		<path class="st1" d="M9.5,1.6C9.1,5.1,8.1,8.5,6.4,11.7c-2.9,5.8-5,8.5-6.4,7.9l0.5,0.3c1.1,0.6,3.1-1.3,6.5-7.8
			C9.6,7.2,9.5,4.6,9.5,1.6z"/>
	</g>
</g>
</svg>
