<svg id="Layer_1" data-name="Layer 1" xmlns="http://www.w3.org/2000/svg" viewBox="0 0 20 20"><defs><style>.cls-1{fill:#115262;}</style></defs><title>adchoices-new</title><path class="cls-1" d="M10.16,15a2.51,2.51,0,0,0,1.24-.46c.31-.16.62-.37,1-.52,1.65-.88,3.3-1.81,4.95-2.74a4.31,4.31,0,0,0,1.55-1,.8.8,0,0,0,.21-.62c-.16-.57-.88-.77-1.34-1L14.29,6.72c-.42-.26-1-.72-1.55-.36a.58.58,0,0,0-.36.36,3,3,0,0,0,0,.67V9c0,.47-.05.83.26,1a.69.69,0,0,0,.46.05c.52-.21.36-1.14.36-1.86V7.7c.88.46,1.76.93,2.63,1.34.31.16.83.31.93.73s-.87.82-1.18,1l-3.57,2c-.25.16-.93.67-1.34.52a.41.41,0,0,1-.26-.31,3.84,3.84,0,0,1-.05-.78V7.75a2.94,2.94,0,0,1,.1-1.19c.37-.51,1.19.42,1.45-.41A.6.6,0,0,0,12,5.63a4,4,0,0,0-1.5-.87A1.37,1.37,0,0,0,10,4.65c-.88.16-.67,1.55-.67,2.59v5.11a5.17,5.17,0,0,0,.21,2.27c.15.26.31.26.62.36Zm2.68-3.36a.57.57,0,1,0-.51-.41c.1.26.25.31.51.41Z"/></svg>