<?xml version="1.0" encoding="utf-8"?>
<!-- Generator: Adobe Illustrator 24.0.1, SVG Export Plug-In . SVG Version: 6.00 Build 0)  -->
<svg version="1.1" xmlns="http://www.w3.org/2000/svg" xmlns:xlink="http://www.w3.org/1999/xlink" x="0px" y="0px"
	 viewBox="0 0 20.1 20.1" style="enable-background:new 0 0 20.1 20.1;" xml:space="preserve">
<style type="text/css">
	.st0{fill:#999999;}
</style>
<g id="Layer_2">
	<rect width="20.1" height="20.1"/>
</g>
<g id="Layer_1">
	<title>adobe-air-icon.html</title>
	<g>
		<defs>
			<rect id="SVGID_1_" x="-8.5" y="-8.7" width="225.2" height="112.6"/>
		</defs>
		<clipPath id="SVGID_2_">
			<use xlink:href="#SVGID_1_"  style="overflow:visible;"/>
		</clipPath>
	</g>
	<g>
		<path class="st0" d="M14.5,12.1c-0.5,2-2.6,3.2-4.6,2.6c-2-0.5-3.2-2.6-2.6-4.6c0.5-2,2.6-3.2,4.6-2.6c0,0,0,0,0,0
			C13.9,8.1,15.1,10.1,14.5,12.1z M19.2,13.9c-0.1-0.1-0.1-0.2-0.2-0.3c-1.1-1.1-1.9-2.4-2.3-3.9c0-0.1,0-0.1,0-0.2
			c0-0.1,0-0.1,0-0.2c-0.4-1.5-0.3-3.1,0.1-4.6c0-0.1,0-0.2,0.1-0.4c0.3-2.1-1.1-4-3.2-4.4C11.7-0.2,10,0.8,9.4,2.6
			c0,0.1-0.1,0.2-0.1,0.2C8.9,4.3,8.1,5.6,7.1,6.7C5.9,7.9,4.4,8.8,2.8,9.3c-2,0.5-3.2,2.6-2.7,4.6c0.5,2,2.6,3.2,4.6,2.7
			c1.5-0.4,3.1-0.4,4.6-0.1c0.1,0,0.1,0,0.2,0c0.1,0,0.1,0,0.2,0c1.5,0.5,2.8,1.3,3.9,2.3c0.1,0.1,0.2,0.2,0.4,0.3
			c1.5,1.2,3.6,1,5-0.3C20.3,17.5,20.4,15.4,19.2,13.9z"/>
	</g>
</g>
</svg>
