<svg id="Light_Theme" data-name="Light Theme" xmlns="http://www.w3.org/2000/svg" viewBox="0 0 16 16"><defs><style>.cls-1{fill:#f53c3c;}</style></defs><title>red_Alert_spectrum</title><path id="_Compound_Path_" data-name="&lt;Compound Path&gt;" class="cls-1" d="M15.93,14.86,9,1.19s-.5-1-1-1-1,1-1,1L.1,15a.8.8,0,0,0,.83,1.17H15.1A.92.92,0,0,0,15.93,14.86ZM8,14.64a1.11,1.11,0,1,1,1.11-1.11A1.11,1.11,0,0,1,8,14.64ZM9,6.19a47.37,47.37,0,0,1-.33,4.75s0,.25-.15.25H7.49c-.08,0-.13-.19-.15-.25C7.3,10.56,7,7.69,7,6.19V4.81c0-.05.13-.14.23-.18A1.84,1.84,0,0,1,8,4.55a2.3,2.3,0,0,1,.78.09c.1,0,.25.14.25.18Z" transform="translate(-0.02 -0.19)"/></svg>