<?xml version="1.0" encoding="utf-8"?>
<!-- Generator: Adobe Illustrator 24.0.0, SVG Export Plug-In . SVG Version: 6.00 Build 0)  -->
<svg version="1.1" id="S_Facebook_24_N" xmlns="http://www.w3.org/2000/svg" xmlns:xlink="http://www.w3.org/1999/xlink" x="0px"
	 y="0px" viewBox="0 0 24 24" style="enable-background:new 0 0 24 24;" xml:space="preserve">
<style type="text/css">
	.st0{fill:#FF13DC;fill-opacity:0;}
	.st1{fill:#707070;}
</style>
<rect id="Canvas" class="st0" width="24" height="24"/>
<path class="st1" d="M19.7,18.9v-8.4H18c0.2,0.5,0.3,1.1,0.3,1.7c0,1.1-0.3,2.1-0.8,3c-0.6,0.9-1.3,1.7-2.3,2.2s-2,0.8-3.1,0.8
	c-1.7,0-3.2-0.6-4.4-1.8c-1.2-1.2-1.8-2.6-1.8-4.3c0-0.6,0.1-1.2,0.3-1.7h-2v8.4c0,0.2,0.1,0.4,0.2,0.6c0.2,0.2,0.3,0.2,0.6,0.2
	h13.9c0.2,0,0.4-0.1,0.6-0.2S19.7,19.1,19.7,18.9z M16,12c0-1.1-0.4-2-1.2-2.8S13.1,8.1,12,8.1s-2,0.4-2.8,1.1S8,10.9,8,12
	s0.4,2,1.2,2.8s1.7,1.1,2.8,1.1s2.1-0.4,2.8-1.1C15.6,14,16,13,16,12z M19.7,7.3V5.1c0-0.2-0.1-0.5-0.3-0.6
	c-0.2-0.2-0.4-0.3-0.6-0.3h-2.3c-0.3,0-0.5,0.1-0.6,0.3c-0.2,0.2-0.3,0.4-0.3,0.6v2.1c0,0.3,0.1,0.5,0.3,0.6
	c0.2,0.2,0.4,0.3,0.6,0.3h2.3c0.3,0,0.5-0.1,0.6-0.3C19.6,7.7,19.7,7.5,19.7,7.3z M22,4.6v14.9c0,0.7-0.3,1.3-0.8,1.8
	S20.1,22,19.4,22H4.6c-0.7,0-1.3-0.3-1.8-0.8C2.3,20.7,2,20.1,2,19.4V4.6c0-0.7,0.3-1.3,0.8-1.8S3.9,2,4.6,2h14.9
	c0.7,0,1.3,0.3,1.8,0.8C21.7,3.3,22,3.9,22,4.6z"/>
</svg>
