<svg xmlns="http://www.w3.org/2000/svg" height="24" id="S_LinkedIn_24_N" viewBox="0 0 24 24" width="24">
  <defs>
    <style>
      .fill {
        fill: #707070;
      }

      
    </style>
  </defs>
  <rect id="Canvas" fill="#ff13dc" opacity="0" width="24" height="24" /><path class="fill" d="M20.52,2H3.476A1.46,1.46,0,0,0,2,3.441V20.557A1.461,1.461,0,0,0,3.476,22H20.52A1.464,1.464,0,0,0,22,20.557V3.441A1.463,1.463,0,0,0,20.52,2ZM7.932,19.042H4.965V9.5H7.932ZM6.449,8.193a1.72,1.72,0,1,1,1.719-1.72A1.719,1.719,0,0,1,6.449,8.193ZM19.042,19.042H16.078V14.4c0-1.107-.02-2.531-1.541-2.531-1.544,0-1.781,1.206-1.781,2.451v4.721H9.792V9.5h2.845v1.3h.04a3.118,3.118,0,0,1,2.807-1.541c3,0,3.558,1.977,3.558,4.546Z" />
  </svg>