<svg xmlns="http://www.w3.org/2000/svg" height="24" id="S_Twitter_24_N" viewBox="0 0 24 24" width="24">
  <defs>
    <style>
      .fill {
        fill: #707070;
      }

      
    </style>
  </defs>
  <rect id="Canvas" fill="#ff13dc" opacity="0" width="24" height="24" /><path class="fill" d="M23.038,5.2a9.062,9.062,0,0,1-2.593.711,4.53,4.53,0,0,0,1.985-2.5,9.033,9.033,0,0,1-2.866,1.1,4.518,4.518,0,0,0-7.692,4.116,12.812,12.812,0,0,1-9.3-4.716,4.519,4.519,0,0,0,1.4,6.026,4.486,4.486,0,0,1-2.044-.564v.057a4.515,4.515,0,0,0,3.621,4.425,4.489,4.489,0,0,1-1.189.159,4.56,4.56,0,0,1-.849-.081A4.517,4.517,0,0,0,7.72,17.061a9.055,9.055,0,0,1-5.606,1.932,9.1,9.1,0,0,1-1.076-.063,12.771,12.771,0,0,0,6.918,2.028A12.753,12.753,0,0,0,20.8,8.116c0-.2,0-.39-.013-.584A9.182,9.182,0,0,0,23.038,5.2Z" />
  </svg>